<?xml version="1.0" encoding="UTF-8" standalone="no"?>
<!-- Created with Inkscape (http://www.inkscape.org/) -->

<svg
   width="16.952835mm"
   height="22.721703mm"
   viewBox="0 0 16.952835 22.721703"
   version="1.1"
   id="svg1"
   xml:space="preserve"
   xmlns="http://www.w3.org/2000/svg"
   xmlns:svg="http://www.w3.org/2000/svg"><defs
     id="defs1" /><g
     id="layer1"
     transform="translate(477.3802,183.98123)"><g
       id="suo3"
       transform="translate(-515.3802,-423.98123)"><g
         id="g44985"
         transform="translate(58,222.02507)"><path
           id="path44981"
           style="fill:#1f6131;fill-opacity:1;stroke:#43413f;stroke-width:0.05;stroke-linecap:round;stroke-linejoin:round;stroke-dasharray:none;stroke-opacity:1;paint-order:normal"
           d="m -16.999996,17.999935 c -0.281486,0 -0.535075,0.115125 -0.716446,0.301055 l -1.974159,2.027152 1.690666,-0.301457 h 11.954826 c 0.554,0 0.9999389,0.445939 0.9999389,0.999939 v 17.616495 l -0.2827624,1.725194 1.973288,-2.027288 c 0.1749923,-0.179912 0.2824806,-0.425855 0.2824806,-0.697845 V 18.999874 c 0,-0.554 -0.445939,-0.999939 -0.999939,-0.999939 z" /><path
           id="path44982"
           style="fill:#e5e2d7;stroke-width:0.0999975;stroke-linecap:round;stroke-linejoin:round"
           d="M -18.40083,19.00375 -5.0719995,19 c 0.554,-1.56e-4 1,0.446 1,1 L -4.0724981,39.07852 -5.3279317,40.368312 -18,39.643206 c -0.553095,-0.03165 -1,-0.446 -1,-1 l -0.6906,-18.315064 z" /><g
           id="g44983"
           transform="translate(-3.9e-7,19)"
           style="stroke:#43413f;stroke-opacity:1"><path
             id="path44983"
             style="fill:#fdfbf7;stroke:#43413f;stroke-width:0.0529167;stroke-linecap:round;stroke-linejoin:round;stroke-opacity:1"
             d="m -18.973541,1.0264584 h 12.9283721 c 0.554,0 1,0.446 1,1 V 20.670179 c 0,0.554 -0.446,1 -1,1 H -18.973541 c -0.554,0 -1,-0.446 -1,-1 V 2.0264584 c 0,-0.554 0.446,-1 1,-1 z" /></g><path
           style="fill:none;stroke:#43413f;stroke-width:0.05;stroke-linecap:round;stroke-linejoin:miter;stroke-dasharray:none;stroke-opacity:1"
           d="m -17.718012,18.302603 -1.973578,2.026556"
           id="path44984" /><path
           style="fill:none;stroke:#43413f;stroke-width:0.05;stroke-linecap:round;stroke-linejoin:miter;stroke-dasharray:none;stroke-opacity:1"
           d="M -3.3562252,38.342646 -5.329036,40.369444"
           id="path44985" /></g><g
         id="g45022"
         transform="translate(-30.393788,158.35751)"><g
           id="g44997"
           transform="matrix(1.0976869,0,0,1.0976869,-28.845818,-0.60754)"><path
             d="m 95.746121,80.163658 c 0,0.351847 -0.368683,0.637183 -0.82345,0.637183 -0.45472,0 -0.82345,-0.285336 -0.82345,-0.637183 0,-0.352033 0.36873,-0.63723 0.82345,-0.63723 0.454767,0 0.82345,0.285197 0.82345,0.63723 z m 0,0"
             fill="#004900"
             id="path44986"
             style="stroke-width:0.00463811" /><path
             d="m 96.712518,80.163658 c 0,0.351847 -0.368683,0.637183 -0.82345,0.637183 -0.45472,0 -0.82345,-0.285336 -0.82345,-0.637183 0,-0.352033 0.36873,-0.63723 0.82345,-0.63723 0.454767,0 0.82345,0.285197 0.82345,0.63723 z m 0,0"
             fill="#004900"
             id="path44987"
             style="stroke-width:0.00463811" /><path
             d="m 95.705538,85.147446 c 0,0.351847 -0.368683,0.637184 -0.82345,0.637184 -0.45472,0 -0.82345,-0.285337 -0.82345,-0.637184 0,-0.351847 0.36873,-0.63723 0.82345,-0.63723 0.454767,0 0.82345,0.285383 0.82345,0.63723 z m 0,0"
             fill="#004900"
             id="path44988"
             style="stroke-width:0.00463811" /><path
             stroke-width="1.83508"
             stroke-linecap="round"
             stroke-miterlimit="4"
             stroke-linejoin="miter"
             fill="none"
             stroke="#004900"
             d="M 95.407493,84.780896 V 80.287542"
             id="path44989" /><path
             d="m 96.766691,85.147446 c 0,0.351847 -0.368683,0.637184 -0.82345,0.637184 -0.45472,0 -0.82345,-0.285337 -0.82345,-0.637184 0,-0.351847 0.36873,-0.63723 0.82345,-0.63723 0.454767,0 0.82345,0.285383 0.82345,0.63723 z m 0,0"
             fill="#004900"
             id="path44990"
             style="stroke-width:0.00463811" /><path
             d="m 96.882087,82.445933 c 0,0.467428 -0.489691,0.846455 -1.093944,0.846455 -0.604207,0 -1.09394,-0.379027 -1.09394,-0.846455 0,-0.467429 0.489733,-0.846456 1.09394,-0.846456 0.604253,0 1.093944,0.379027 1.093944,0.846456 z m 0,0"
             fill="#004900"
             id="path44991"
             style="stroke-width:0.00463811" /><path
             d="m 96.125704,82.445933 c 0,0.467428 -0.489738,0.846455 -1.093944,0.846455 -0.604249,0 -1.09395,-0.379027 -1.09395,-0.846455 0,-0.467429 0.489701,-0.846456 1.09395,-0.846456 0.604206,0 1.093944,0.379027 1.093944,0.846456 z m 0,0"
             fill="#004900"
             id="path44992"
             style="stroke-width:0.00463811" /><path
             stroke-width="0.41743"
             stroke-linecap="round"
             stroke-miterlimit="4"
             stroke-linejoin="miter"
             fill="none"
             stroke="#ffffff"
             d="M 95.407493,80.340277 V 81.60291"
             id="path44993" /><path
             stroke-width="0.41743"
             stroke-linecap="round"
             stroke-miterlimit="4"
             stroke-linejoin="miter"
             fill="none"
             stroke="#ffffff"
             d="m 95.407493,83.404537 v 1.559194"
             id="path44994" /><path
             d="m 95.707532,80.267273 c 0,0.160154 -0.134412,0.290253 -0.300039,0.290253 -0.165766,0 -0.299993,-0.130099 -0.299993,-0.290253 0,-0.160339 0.134227,-0.290253 0.299993,-0.290253 0.165627,0 0.300039,0.129914 0.300039,0.290253 z m 0,0"
             fill="#ffffff"
             id="path44995"
             style="stroke-width:0.00463811" /><path
             stroke-width="0.347858"
             stroke-linecap="round"
             stroke-linejoin="round"
             fill="none"
             stroke="#ffffff"
             d="m 95.095348,82.879271 c 0.141138,-0.215023 0.519051,-0.205607 0.637926,0"
             id="path44996" /><path
             stroke-width="0.347858"
             stroke-linecap="round"
             stroke-linejoin="round"
             fill="none"
             stroke="#ffffff"
             d="m 95.095348,82.269081 c 0.141138,-0.214883 0.519051,-0.205607 0.637926,0"
             id="path44997" /></g><g
           id="g45009"
           transform="matrix(1.0976869,0,0,1.0976869,-28.247938,-0.60754)"><path
             d="m 92.291281,87.414137 c 0,0.351847 -0.368674,0.637183 -0.823445,0.637183 -0.454952,0 -0.823446,-0.285336 -0.823446,-0.637183 0,-0.352033 0.368494,-0.637184 0.823446,-0.637184 0.454771,0 0.823445,0.285151 0.823445,0.637184 z m 0,0"
             fill="#004900"
             id="path44998"
             style="stroke-width:0.00463811" /><path
             d="m 93.257673,87.414137 c 0,0.351847 -0.368674,0.637183 -0.823445,0.637183 -0.454767,0 -0.823445,-0.285336 -0.823445,-0.637183 0,-0.352033 0.368678,-0.637184 0.823445,-0.637184 0.454771,0 0.823445,0.285151 0.823445,0.637184 z m 0,0"
             fill="#004900"
             id="path44999"
             style="stroke-width:0.00463811" /><path
             d="m 92.250698,92.397921 c 0,0.351845 -0.368674,0.63718 -0.823445,0.63718 -0.454953,0 -0.823627,-0.285335 -0.823627,-0.63718 0,-0.351843 0.368674,-0.637179 0.823627,-0.637179 0.454771,0 0.823445,0.285336 0.823445,0.637179 z m 0,0"
             fill="#004900"
             id="path45000"
             style="stroke-width:0.00463811" /><path
             stroke-width="1.83508"
             stroke-linecap="round"
             stroke-miterlimit="4"
             stroke-linejoin="miter"
             fill="none"
             stroke="#004900"
             d="M 91.952463,92.031422 V 87.538067"
             id="path45001" /><path
             d="m 93.311846,92.397921 c 0,0.351845 -0.368674,0.63718 -0.823626,0.63718 -0.454771,0 -0.823445,-0.285335 -0.823445,-0.63718 0,-0.351843 0.368674,-0.637179 0.823445,-0.637179 0.454952,0 0.823626,0.285336 0.823626,0.637179 z m 0,0"
             fill="#004900"
             id="path45002"
             style="stroke-width:0.00463811" /><path
             d="m 93.427257,89.696402 c 0,0.467438 -0.489882,0.846455 -1.09394,0.846455 -0.604226,0 -1.093964,-0.379017 -1.093964,-0.846455 0,-0.467414 0.489738,-0.846455 1.093964,-0.846455 0.604058,0 1.09394,0.379041 1.09394,0.846455 z m 0,0"
             fill="#004900"
             id="path45003"
             style="stroke-width:0.00463811" /><path
             d="m 92.670683,89.696402 c 0,0.467438 -0.489738,0.846455 -1.093944,0.846455 -0.604077,0 -1.093758,-0.379017 -1.093758,-0.846455 0,-0.467414 0.489681,-0.846455 1.093758,-0.846455 0.604206,0 1.093944,0.379041 1.093944,0.846455 z m 0,0"
             fill="#004900"
             id="path45004"
             style="stroke-width:0.00463811" /><path
             stroke-width="0.41743"
             stroke-linecap="round"
             stroke-miterlimit="4"
             stroke-linejoin="miter"
             fill="none"
             stroke="#ffffff"
             d="m 91.952463,87.590756 v 1.262637"
             id="path45005" /><path
             stroke-width="0.41743"
             stroke-linecap="round"
             stroke-miterlimit="4"
             stroke-linejoin="miter"
             fill="none"
             stroke="#ffffff"
             d="m 91.952463,90.655007 v 1.559384"
             id="path45006" /><path
             d="m 92.252511,87.517752 c 0,0.160154 -0.134273,0.290253 -0.300048,0.290253 -0.165576,0 -0.300026,-0.130099 -0.300026,-0.290253 0,-0.160339 0.13445,-0.290253 0.300026,-0.290253 0.165775,0 0.300048,0.129914 0.300048,0.290253 z m 0,0"
             fill="#ffffff"
             id="path45007"
             style="stroke-width:0.00463811" /><path
             stroke-width="0.347858"
             stroke-linecap="round"
             stroke-linejoin="round"
             fill="none"
             stroke="#ffffff"
             d="m 91.640332,90.129797 c 0.141138,-0.214875 0.519236,-0.205654 0.637921,0"
             id="path45008" /><path
             stroke-width="0.347858"
             stroke-linecap="round"
             stroke-linejoin="round"
             fill="none"
             stroke="#ffffff"
             d="m 91.640332,89.51956 c 0.141138,-0.214841 0.519236,-0.205602 0.637921,0"
             id="path45009" /></g><g
           id="g45021"
           transform="matrix(1.0976869,0,0,1.0976869,-29.60403,-0.60754)"><path
             d="m 99.347011,87.414137 c 0,0.351847 -0.368684,0.637183 -0.82345,0.637183 -0.454767,0 -0.82345,-0.285336 -0.82345,-0.637183 0,-0.352033 0.368683,-0.637184 0.82345,-0.637184 0.454766,0 0.82345,0.285151 0.82345,0.637184 z m 0,0"
             fill="#004900"
             id="path45010"
             style="stroke-width:0.00463811" /><path
             d="m 100.31341,87.414137 c 0,0.351847 -0.3685,0.637183 -0.823453,0.637183 -0.454766,0 -0.82345,-0.285336 -0.82345,-0.637183 0,-0.352033 0.368684,-0.637184 0.82345,-0.637184 0.454953,0 0.823453,0.285151 0.823453,0.637184 z m 0,0"
             fill="#004900"
             id="path45011"
             style="stroke-width:0.00463811" /><path
             d="m 99.306427,92.397921 c 0,0.351845 -0.368683,0.63718 -0.82345,0.63718 -0.454766,0 -0.82345,-0.285335 -0.82345,-0.63718 0,-0.351843 0.368684,-0.637179 0.82345,-0.637179 0.454767,0 0.82345,0.285336 0.82345,0.637179 z m 0,0"
             fill="#004900"
             id="path45012"
             style="stroke-width:0.00463811" /><path
             stroke-width="1.83508"
             stroke-linecap="round"
             stroke-miterlimit="4"
             stroke-linejoin="miter"
             fill="none"
             stroke="#004900"
             d="M 99.008382,92.031422 V 87.538067"
             id="path45013" /><path
             d="m 100.36758,92.397921 c 0,0.351845 -0.368683,0.63718 -0.823449,0.63718 -0.454767,0 -0.823451,-0.285335 -0.823451,-0.63718 0,-0.351843 0.368684,-0.637179 0.823451,-0.637179 0.454766,0 0.823449,0.285336 0.823449,0.637179 z m 0,0"
             fill="#004900"
             id="path45014"
             style="stroke-width:0.00463811" /><path
             d="m 100.48298,89.696402 c 0,0.467438 -0.489741,0.846455 -1.093948,0.846455 -0.604021,0 -1.093944,-0.379017 -1.093944,-0.846455 0,-0.467414 0.489923,-0.846455 1.093944,-0.846455 0.604207,0 1.093948,0.379041 1.093948,0.846455 z m 0,0"
             fill="#004900"
             id="path45015"
             style="stroke-width:0.00463811" /><path
             d="m 99.726547,89.696402 c 0,0.467438 -0.489691,0.846455 -1.093898,0.846455 -0.604067,0 -1.093944,-0.379017 -1.093944,-0.846455 0,-0.467414 0.489877,-0.846455 1.093944,-0.846455 0.604207,0 1.093898,0.379041 1.093898,0.846455 z m 0,0"
             fill="#004900"
             id="path45016"
             style="stroke-width:0.00463811" /><path
             stroke-width="0.41743"
             stroke-linecap="round"
             stroke-miterlimit="4"
             stroke-linejoin="miter"
             fill="none"
             stroke="#ffffff"
             d="m 99.008382,87.590756 v 1.262637"
             id="path45017" /><path
             stroke-width="0.41743"
             stroke-linecap="round"
             stroke-miterlimit="4"
             stroke-linejoin="miter"
             fill="none"
             stroke="#ffffff"
             d="m 99.008382,90.655007 v 1.559384"
             id="path45018" /><path
             d="m 99.308422,87.517752 c 0,0.160154 -0.134273,0.290253 -0.30004,0.290253 -0.16558,0 -0.300039,-0.130099 -0.300039,-0.290253 0,-0.160339 0.134459,-0.290253 0.300039,-0.290253 0.165767,0 0.30004,0.129914 0.30004,0.290253 z m 0,0"
             fill="#ffffff"
             id="path45019"
             style="stroke-width:0.00463811" /><path
             stroke-width="0.347858"
             stroke-linecap="round"
             stroke-linejoin="round"
             fill="none"
             stroke="#ffffff"
             d="m 98.696238,90.129797 c 0.141137,-0.214875 0.519236,-0.205654 0.637925,0"
             id="path45020" /><path
             stroke-width="0.347858"
             stroke-linecap="round"
             stroke-linejoin="round"
             fill="none"
             stroke="#ffffff"
             d="m 98.696238,89.51956 c 0.141137,-0.214841 0.519236,-0.205602 0.637925,0"
             id="path45021" /></g></g></g></g></svg>
