<?xml version="1.0" encoding="UTF-8" standalone="no"?>
<!-- Created with Inkscape (http://www.inkscape.org/) -->

<svg
   width="16.952835mm"
   height="22.721703mm"
   viewBox="0 0 16.952835 22.721703"
   version="1.1"
   id="svg1"
   xml:space="preserve"
   xmlns="http://www.w3.org/2000/svg"
   xmlns:svg="http://www.w3.org/2000/svg"><defs
     id="defs1"><clipPath
       id="clip_1-13"><path
         transform="matrix(0.16936,0,0,-0.16936,3.372,55.289)"
         d="M 0,0 H 225 V 300 H 0 Z"
         id="path2-7" /></clipPath></defs><g
     id="layer1"
     transform="translate(377.3802,159.25923)"><g
       id="tong8"
       transform="translate(-497.8802,-429.25923)"><g
         id="g44599"
         transform="translate(140.5,252.02507)"><path
           id="path44595"
           style="fill:#1f6131;fill-opacity:1;stroke:#43413f;stroke-width:0.05;stroke-linecap:round;stroke-linejoin:round;stroke-dasharray:none;stroke-opacity:1;paint-order:normal"
           d="m -16.999996,17.999935 c -0.281486,0 -0.535075,0.115125 -0.716446,0.301055 l -1.974159,2.027152 1.690666,-0.301457 h 11.954826 c 0.554,0 0.9999389,0.445939 0.9999389,0.999939 v 17.616495 l -0.2827624,1.725194 1.973288,-2.027288 c 0.1749923,-0.179912 0.2824806,-0.425855 0.2824806,-0.697845 V 18.999874 c 0,-0.554 -0.445939,-0.999939 -0.999939,-0.999939 z" /><path
           id="path44596"
           style="fill:#e5e2d7;stroke-width:0.0999975;stroke-linecap:round;stroke-linejoin:round"
           d="M -18.40083,19.00375 -5.0719995,19 c 0.554,-1.56e-4 1,0.446 1,1 L -4.0724981,39.07852 -5.3279317,40.368312 -18,39.643206 c -0.553095,-0.03165 -1,-0.446 -1,-1 l -0.6906,-18.315064 z" /><g
           id="g44597"
           transform="translate(-3.9e-7,19)"
           style="stroke:#43413f;stroke-opacity:1"><path
             id="path44597"
             style="fill:#fdfbf7;stroke:#43413f;stroke-width:0.0529167;stroke-linecap:round;stroke-linejoin:round;stroke-opacity:1"
             d="m -18.973541,1.0264584 h 12.9283721 c 0.554,0 1,0.446 1,1 V 20.670179 c 0,0.554 -0.446,1 -1,1 H -18.973541 c -0.554,0 -1,-0.446 -1,-1 V 2.0264584 c 0,-0.554 0.446,-1 1,-1 z" /></g><path
           style="fill:none;stroke:#43413f;stroke-width:0.05;stroke-linecap:round;stroke-linejoin:miter;stroke-dasharray:none;stroke-opacity:1"
           d="m -17.718012,18.302603 -1.973578,2.026556"
           id="path44598" /><path
           style="fill:none;stroke:#43413f;stroke-width:0.05;stroke-linecap:round;stroke-linejoin:miter;stroke-dasharray:none;stroke-opacity:1"
           d="M -3.3562252,38.342646 -5.329036,40.369444"
           id="path44599" /></g><g
         clip-path="url(#clip_1-13)"
         id="g44647"
         transform="matrix(0.32237855,0,0,0.32237855,120.76131,272.7388)"><path
           transform="matrix(0.016936,0,0,-0.016936,3.372,55.289)"
           d="m 1191.76,2506.8 c 0,-253.17 -205.201,-458.36 -458.362,-458.36 C 480.23,2048.44 275,2253.63 275,2506.8 c 0,253.16 205.23,458.4 458.398,458.4 253.161,0 458.362,-205.24 458.362,-458.4 z m 0,0"
           id="path44600" /><path
           transform="matrix(0.016936,0,0,-0.016936,3.372,55.289)"
           d="m 1191.76,1831.8 c 0,-253.17 -205.201,-458.36 -458.362,-458.36 C 480.23,1373.44 275,1578.63 275,1831.8 c 0,253.16 205.23,458.4 458.398,458.4 253.161,0 458.362,-205.24 458.362,-458.4 z m 0,0"
           id="path44601" /><path
           transform="matrix(0.016936,0,0,-0.016936,3.372,55.289)"
           d="M 1191.76,1168.05 C 1191.76,914.879 986.559,709.691 733.398,709.691 480.23,709.691 275,914.879 275,1168.05 c 0,253.16 205.23,458.4 458.398,458.4 253.161,0 458.362,-205.24 458.362,-458.4 z m 0,0"
           id="path44602" /><path
           transform="matrix(0.016936,0,0,-0.016936,3.372,55.289)"
           d="M 1191.76,493.051 C 1191.76,239.879 986.559,34.6914 733.398,34.6914 480.23,34.6914 275,239.879 275,493.051 c 0,253.16 205.23,458.398 458.398,458.398 253.161,0 458.362,-205.238 458.362,-458.398 z m 0,0"
           id="path44603" /><path
           transform="matrix(0.016936,0,0,-0.016936,3.372,55.289)"
           d="m 1975,2506.8 c 0,-253.17 -205.23,-458.36 -458.4,-458.36 -253.16,0 -458.4,205.19 -458.4,458.36 0,253.16 205.24,458.4 458.4,458.4 253.17,0 458.4,-205.24 458.4,-458.4 z m 0,0"
           id="path44604" /><path
           transform="matrix(0.016936,0,0,-0.016936,3.372,55.289)"
           d="m 1975,1831.8 c 0,-253.17 -205.23,-458.36 -458.4,-458.36 -253.16,0 -458.4,205.19 -458.4,458.36 0,253.16 205.24,458.4 458.4,458.4 253.17,0 458.4,-205.24 458.4,-458.4 z m 0,0"
           id="path44605" /><path
           transform="matrix(0.016936,0,0,-0.016936,3.372,55.289)"
           d="m 1975,1168.05 c 0,-253.171 -205.23,-458.359 -458.4,-458.359 -253.16,0 -458.4,205.188 -458.4,458.359 0,253.16 205.24,458.4 458.4,458.4 253.17,0 458.4,-205.24 458.4,-458.4 z m 0,0"
           id="path44606" /><path
           transform="matrix(0.016936,0,0,-0.016936,3.372,55.289)"
           d="m 1975,493.051 c 0,-253.172 -205.23,-458.3596 -458.4,-458.3596 -253.16,0 -458.4,205.1876 -458.4,458.3596 0,253.16 205.24,458.398 458.4,458.398 253.17,0 458.4,-205.238 458.4,-458.398 z m 0,0"
           id="path44607" /><path
           transform="matrix(0.016936,0,0,-0.016936,3.372,55.289)"
           d="m 1079.1,2506.8 c 0,-190.94 -154.76,-345.71 -345.702,-345.71 -190.937,0 -345.699,154.77 -345.699,345.71 0,190.93 154.762,345.7 345.699,345.7 190.942,0 345.702,-154.77 345.702,-345.7 z m 0,0"
           fill="#ffffff"
           id="path44608" /><path
           transform="matrix(0.016936,0,0,-0.016936,3.372,55.289)"
           d="m 1031.09,2506.8 c 0,-164.42 -133.281,-297.7 -297.692,-297.7 -164.418,0 -297.699,133.28 -297.699,297.7 0,164.41 133.281,297.69 297.699,297.69 164.411,0 297.692,-133.28 297.692,-297.69 z m 0,0"
           fill="#000037"
           id="path44609" /><path
           transform="matrix(0.016936,0,0,-0.016936,3.372,55.289)"
           stroke-width="50.6284"
           stroke-linecap="round"
           stroke-dasharray="101.257, 101.257"
           stroke-linejoin="round"
           fill="none"
           stroke="#ffffff"
           d="m 895.004,2507.93 c -0.586,88.04 -71.602,159.42 -159.695,160.47 -88.039,1.05 -160.735,-68.6 -163.438,-156.64 -2.691,-88.01 65.59,-162 153.524,-166.37 87.964,-4.38 163.238,62.5 169.253,150.39"
           id="path44610" /><path
           transform="matrix(0.016936,0,0,-0.016936,3.372,55.289)"
           d="m 793.629,2506.8 c 0,-33.28 -26.949,-60.24 -60.231,-60.24 -33.277,0 -60.238,26.96 -60.238,60.24 0,33.28 26.961,60.23 60.238,60.23 33.282,0 60.231,-26.95 60.231,-60.23 z m 0,0"
           fill="#ffffff"
           id="path44611" /><path
           transform="matrix(0.016936,0,0,-0.016936,3.372,55.289)"
           d="m 760.898,2506.8 c 0,-15.2 -12.308,-27.5 -27.5,-27.5 -15.199,0 -27.5,12.3 -27.5,27.5 0,15.19 12.301,27.5 27.5,27.5 15.192,0 27.5,-12.31 27.5,-27.5 z m 0,0"
           fill="#000037"
           id="path44612" /><path
           transform="matrix(0.016936,0,0,-0.016936,3.372,55.289)"
           d="m 1079.1,1831.8 c 0,-190.94 -154.76,-345.71 -345.702,-345.71 -190.937,0 -345.699,154.77 -345.699,345.71 0,190.93 154.762,345.7 345.699,345.7 190.942,0 345.702,-154.77 345.702,-345.7 z m 0,0"
           fill="#ffffff"
           id="path44613" /><path
           transform="matrix(0.016936,0,0,-0.016936,3.372,55.289)"
           d="m 1031.09,1831.8 c 0,-164.42 -133.281,-297.7 -297.692,-297.7 -164.418,0 -297.699,133.28 -297.699,297.7 0,164.41 133.281,297.69 297.699,297.69 164.411,0 297.692,-133.28 297.692,-297.69 z m 0,0"
           fill="#000037"
           id="path44614" /><path
           transform="matrix(0.016936,0,0,-0.016936,3.372,55.289)"
           stroke-width="50.6284"
           stroke-linecap="round"
           stroke-dasharray="101.257, 101.257"
           stroke-linejoin="round"
           fill="none"
           stroke="#ffffff"
           d="m 895.004,1832.93 c -0.586,88.04 -71.602,159.42 -159.691,160.47 -88.043,1.05 -160.747,-68.59 -163.438,-156.65 -2.695,-88 65.586,-161.98 153.512,-166.36 87.972,-4.38 163.246,62.5 169.261,150.39"
           id="path44615" /><path
           transform="matrix(0.016936,0,0,-0.016936,3.372,55.289)"
           d="m 793.629,1831.8 c 0,-33.28 -26.949,-60.24 -60.231,-60.24 -33.277,0 -60.238,26.96 -60.238,60.24 0,33.28 26.961,60.23 60.238,60.23 33.282,0 60.231,-26.95 60.231,-60.23 z m 0,0"
           fill="#ffffff"
           id="path44616" /><path
           transform="matrix(0.016936,0,0,-0.016936,3.372,55.289)"
           d="m 760.898,1831.8 c 0,-15.2 -12.308,-27.5 -27.5,-27.5 -15.199,0 -27.5,12.3 -27.5,27.5 0,15.19 12.301,27.5 27.5,27.5 15.192,0 27.5,-12.31 27.5,-27.5 z m 0,0"
           fill="#000037"
           id="path44617" /><path
           transform="matrix(0.016936,0,0,-0.016936,3.372,55.289)"
           d="m 1079.1,1168.05 c 0,-190.941 -154.76,-345.71 -345.702,-345.71 -190.937,0 -345.699,154.769 -345.699,345.71 0,190.93 154.762,345.7 345.699,345.7 190.942,0 345.702,-154.77 345.702,-345.7 z m 0,0"
           fill="#ffffff"
           id="path44618" /><path
           transform="matrix(0.016936,0,0,-0.016936,3.372,55.289)"
           d="m 1031.09,1168.05 c 0,-164.42 -133.281,-297.698 -297.692,-297.698 -164.418,0 -297.699,133.278 -297.699,297.698 0,164.41 133.281,297.69 297.699,297.69 164.411,0 297.692,-133.28 297.692,-297.69 z m 0,0"
           fill="#000037"
           id="path44619" /><path
           transform="matrix(0.016936,0,0,-0.016936,3.372,55.289)"
           stroke-width="50.6284"
           stroke-linecap="round"
           stroke-dasharray="101.257, 101.257"
           stroke-linejoin="round"
           fill="none"
           stroke="#ffffff"
           d="m 895,1169.18 c -0.59,88.05 -71.602,159.41 -159.684,160.47 -88.05,1.05 -160.746,-68.59 -163.437,-156.65 -2.695,-88 65.578,-161.98 153.512,-166.36 87.964,-4.37 163.238,62.5 169.261,150.39"
           id="path44620" /><path
           transform="matrix(0.016936,0,0,-0.016936,3.372,55.289)"
           d="m 793.629,1168.05 c 0,-33.28 -26.949,-60.24 -60.231,-60.24 -33.277,0 -60.238,26.96 -60.238,60.24 0,33.28 26.961,60.23 60.238,60.23 33.282,0 60.231,-26.95 60.231,-60.23 z m 0,0"
           fill="#ffffff"
           id="path44621" /><path
           transform="matrix(0.016936,0,0,-0.016936,3.372,55.289)"
           d="m 760.898,1168.05 c 0,-15.2 -12.308,-27.5 -27.5,-27.5 -15.199,0 -27.5,12.3 -27.5,27.5 0,15.19 12.301,27.5 27.5,27.5 15.192,0 27.5,-12.31 27.5,-27.5 z m 0,0"
           fill="#000037"
           id="path44622" /><path
           transform="matrix(0.016936,0,0,-0.016936,3.372,55.289)"
           d="m 1079.1,493.051 c 0,-190.942 -154.76,-345.711 -345.702,-345.711 -190.937,0 -345.699,154.769 -345.699,345.711 0,190.929 154.762,345.699 345.699,345.699 190.942,0 345.702,-154.77 345.702,-345.699 z m 0,0"
           fill="#ffffff"
           id="path44623" /><path
           transform="matrix(0.016936,0,0,-0.016936,3.372,55.289)"
           d="m 1031.09,493.051 c 0,-164.422 -133.281,-297.699 -297.692,-297.699 -164.418,0 -297.699,133.277 -297.699,297.699 0,164.41 133.281,297.687 297.699,297.687 164.411,0 297.692,-133.277 297.692,-297.687 z m 0,0"
           fill="#000037"
           id="path44624" /><path
           transform="matrix(0.016936,0,0,-0.016936,3.372,55.289)"
           stroke-width="50.6284"
           stroke-linecap="round"
           stroke-dasharray="101.257, 101.257"
           stroke-linejoin="round"
           fill="none"
           stroke="#ffffff"
           d="M 895,494.18 C 894.414,582.23 823.398,653.594 735.316,654.645 647.266,655.699 574.57,586.055 571.879,498.012 569.176,410 637.457,336.016 725.391,331.641 c 87.964,-4.371 163.238,62.5 169.254,150.394"
           id="path44625" /><path
           transform="matrix(0.016936,0,0,-0.016936,3.372,55.289)"
           d="m 793.629,493.051 c 0,-33.281 -26.949,-60.242 -60.231,-60.242 -33.277,0 -60.238,26.961 -60.238,60.242 0,33.281 26.961,60.23 60.238,60.23 33.282,0 60.231,-26.949 60.231,-60.23 z m 0,0"
           fill="#ffffff"
           id="path44626" /><path
           transform="matrix(0.016936,0,0,-0.016936,3.372,55.289)"
           d="m 760.898,493.051 c 0,-15.199 -12.308,-27.5 -27.5,-27.5 -15.199,0 -27.5,12.301 -27.5,27.5 0,15.187 12.301,27.5 27.5,27.5 15.192,0 27.5,-12.313 27.5,-27.5 z m 0,0"
           fill="#000037"
           id="path44627" /><path
           transform="matrix(0.016936,0,0,-0.016936,3.372,55.289)"
           d="m 1862.3,2506.8 c 0,-190.94 -154.76,-345.71 -345.7,-345.71 -190.94,0 -345.7,154.77 -345.7,345.71 0,190.93 154.76,345.7 345.7,345.7 190.94,0 345.7,-154.77 345.7,-345.7 z m 0,0"
           fill="#ffffff"
           id="path44628" /><path
           transform="matrix(0.016936,0,0,-0.016936,3.372,55.289)"
           d="m 1814.3,2506.8 c 0,-164.42 -133.28,-297.7 -297.7,-297.7 -164.41,0 -297.69,133.28 -297.69,297.7 0,164.41 133.28,297.69 297.69,297.69 164.42,0 297.7,-133.28 297.7,-297.69 z m 0,0"
           fill="#000037"
           id="path44629" /><path
           transform="matrix(0.016936,0,0,-0.016936,3.372,55.289)"
           stroke-width="50.6284"
           stroke-linecap="round"
           stroke-dasharray="101.257, 101.257"
           stroke-linejoin="round"
           fill="none"
           stroke="#ffffff"
           d="m 1678.2,2507.93 c -0.59,88.05 -71.6,159.41 -159.64,160.47 -88.1,1.05 -160.79,-68.59 -163.48,-156.65 -2.69,-88 65.59,-161.98 153.55,-166.36 87.94,-4.38 163.21,62.5 169.23,150.39"
           id="path44630" /><path
           transform="matrix(0.016936,0,0,-0.016936,3.372,55.289)"
           d="m 1576.84,2506.8 c 0,-33.28 -26.96,-60.24 -60.24,-60.24 -33.28,0 -60.23,26.96 -60.23,60.24 0,33.28 26.95,60.23 60.23,60.23 33.28,0 60.24,-26.95 60.24,-60.23 z m 0,0"
           fill="#ffffff"
           id="path44631" /><path
           transform="matrix(0.016936,0,0,-0.016936,3.372,55.289)"
           d="m 1544.1,2506.8 c 0,-15.2 -12.3,-27.5 -27.5,-27.5 -15.19,0 -27.5,12.3 -27.5,27.5 0,15.19 12.31,27.5 27.5,27.5 15.2,0 27.5,-12.31 27.5,-27.5 z m 0,0"
           fill="#000037"
           id="path44632" /><path
           transform="matrix(0.016936,0,0,-0.016936,3.372,55.289)"
           d="m 1862.3,1831.8 c 0,-190.94 -154.76,-345.71 -345.7,-345.71 -190.94,0 -345.7,154.77 -345.7,345.71 0,190.93 154.76,345.7 345.7,345.7 190.94,0 345.7,-154.77 345.7,-345.7 z m 0,0"
           fill="#ffffff"
           id="path44633" /><path
           transform="matrix(0.016936,0,0,-0.016936,3.372,55.289)"
           d="m 1814.3,1831.8 c 0,-164.42 -133.28,-297.7 -297.7,-297.7 -164.41,0 -297.69,133.28 -297.69,297.7 0,164.41 133.28,297.69 297.69,297.69 164.42,0 297.7,-133.28 297.7,-297.69 z m 0,0"
           fill="#000037"
           id="path44634" /><path
           transform="matrix(0.016936,0,0,-0.016936,3.372,55.289)"
           stroke-width="50.6284"
           stroke-linecap="round"
           stroke-dasharray="101.257, 101.257"
           stroke-linejoin="round"
           fill="none"
           stroke="#ffffff"
           d="m 1678.2,1832.93 c -0.58,88.05 -71.6,159.41 -159.64,160.47 -88.09,1.05 -160.79,-68.6 -163.48,-156.64 -2.69,-88.01 65.58,-161.99 153.55,-166.37 87.93,-4.37 163.2,62.5 169.23,150.39"
           id="path44635" /><path
           transform="matrix(0.016936,0,0,-0.016936,3.372,55.289)"
           d="m 1576.84,1831.8 c 0,-33.28 -26.96,-60.24 -60.24,-60.24 -33.28,0 -60.23,26.96 -60.23,60.24 0,33.28 26.95,60.23 60.23,60.23 33.28,0 60.24,-26.95 60.24,-60.23 z m 0,0"
           fill="#ffffff"
           id="path44636" /><path
           transform="matrix(0.016936,0,0,-0.016936,3.372,55.289)"
           d="m 1544.1,1831.8 c 0,-15.2 -12.3,-27.5 -27.5,-27.5 -15.19,0 -27.5,12.3 -27.5,27.5 0,15.19 12.31,27.5 27.5,27.5 15.2,0 27.5,-12.31 27.5,-27.5 z m 0,0"
           fill="#000037"
           id="path44637" /><path
           transform="matrix(0.016936,0,0,-0.016936,3.372,55.289)"
           d="m 1862.3,1168.05 c 0,-190.941 -154.76,-345.71 -345.7,-345.71 -190.94,0 -345.7,154.769 -345.7,345.71 0,190.93 154.76,345.7 345.7,345.7 190.94,0 345.7,-154.77 345.7,-345.7 z m 0,0"
           fill="#ffffff"
           id="path44638" /><path
           transform="matrix(0.016936,0,0,-0.016936,3.372,55.289)"
           d="m 1814.3,1168.05 c 0,-164.42 -133.28,-297.698 -297.7,-297.698 -164.41,0 -297.69,133.278 -297.69,297.698 0,164.41 133.28,297.69 297.69,297.69 164.42,0 297.7,-133.28 297.7,-297.69 z m 0,0"
           fill="#000037"
           id="path44639" /><path
           transform="matrix(0.016936,0,0,-0.016936,3.372,55.289)"
           stroke-width="50.6284"
           stroke-linecap="round"
           stroke-dasharray="101.257, 101.257"
           stroke-linejoin="round"
           fill="none"
           stroke="#ffffff"
           d="m 1678.21,1169.18 c -0.59,88.05 -71.6,159.41 -159.66,160.46 -88.08,1.06 -160.77,-68.59 -163.48,-156.63 -2.69,-88.01 65.59,-161.99 153.56,-166.37 87.93,-4.37 163.21,62.5 169.22,150.4"
           id="path44640" /><path
           transform="matrix(0.016936,0,0,-0.016936,3.372,55.289)"
           d="m 1576.84,1168.05 c 0,-33.28 -26.96,-60.24 -60.24,-60.24 -33.28,0 -60.23,26.96 -60.23,60.24 0,33.28 26.95,60.23 60.23,60.23 33.28,0 60.24,-26.95 60.24,-60.23 z m 0,0"
           fill="#ffffff"
           id="path44641" /><path
           transform="matrix(0.016936,0,0,-0.016936,3.372,55.289)"
           d="m 1544.1,1168.05 c 0,-15.2 -12.3,-27.5 -27.5,-27.5 -15.19,0 -27.5,12.3 -27.5,27.5 0,15.19 12.31,27.5 27.5,27.5 15.2,0 27.5,-12.31 27.5,-27.5 z m 0,0"
           fill="#000037"
           id="path44642" /><path
           transform="matrix(0.016936,0,0,-0.016936,3.372,55.289)"
           d="m 1862.3,493.051 c 0,-190.942 -154.76,-345.711 -345.7,-345.711 -190.94,0 -345.7,154.769 -345.7,345.711 0,190.929 154.76,345.699 345.7,345.699 190.94,0 345.7,-154.77 345.7,-345.699 z m 0,0"
           fill="#ffffff"
           id="path44643" /><path
           transform="matrix(0.016936,0,0,-0.016936,3.372,55.289)"
           d="m 1814.3,493.051 c 0,-164.422 -133.28,-297.699 -297.7,-297.699 -164.41,0 -297.69,133.277 -297.69,297.699 0,164.41 133.28,297.687 297.69,297.687 164.42,0 297.7,-133.277 297.7,-297.687 z m 0,0"
           fill="#000037"
           id="path44644" /><path
           transform="matrix(0.016936,0,0,-0.016936,3.372,55.289)"
           stroke-width="50.6284"
           stroke-linecap="round"
           stroke-dasharray="101.257, 101.257"
           stroke-linejoin="round"
           fill="none"
           stroke="#ffffff"
           d="m 1678.21,494.176 c -0.59,88.051 -71.6,159.414 -159.66,160.476 -88.08,1.055 -160.78,-68.601 -163.48,-156.644 -2.69,-88.012 65.59,-161.996 153.56,-166.367 87.93,-4.375 163.21,62.496 169.22,150.39"
           id="path44645" /><path
           transform="matrix(0.016936,0,0,-0.016936,3.372,55.289)"
           d="m 1576.84,493.051 c 0,-33.281 -26.96,-60.242 -60.24,-60.242 -33.28,0 -60.23,26.961 -60.23,60.242 0,33.281 26.95,60.23 60.23,60.23 33.28,0 60.24,-26.949 60.24,-60.23 z m 0,0"
           fill="#ffffff"
           id="path44646" /><path
           transform="matrix(0.016936,0,0,-0.016936,3.372,55.289)"
           d="m 1544.1,493.051 c 0,-15.199 -12.3,-27.5 -27.5,-27.5 -15.19,0 -27.5,12.301 -27.5,27.5 0,15.187 12.31,27.5 27.5,27.5 15.2,0 27.5,-12.313 27.5,-27.5 z m 0,0"
           fill="#000037"
           id="path44647" /></g></g></g></svg>
